#N canvas 1091 73 509 376 12;
#X obj 45 32 netreceive -u -b 8001;
#X obj 45 56 oscparse;
#X obj 45 80 print;
#X obj 36 315 netsend -u -b;
#X msg 35 262 connect localhost 8000;
#X obj 36 238 loadbang;
#X obj 275 79 oscformat sides;
#X msg 270 217 symbol #ff00ff;
#X obj 270 274 oscformat -f s color;
#X msg 287 243 symbol #ffff00;
#X obj 279 35 hsl 162 19 3 12 0 0 empty empty empty -2 -10 0 12 #fcfcfc #000000 #000000 0 1;
#X msg 444 35 12;
#X msg 247 34 3;
#X obj 232 79 s \$0o;
#X obj 42 286 r \$0o;
#X obj 277 57 int;
#X obj 279 111 hsl 162 19 0 360 0 0 empty empty empty -2 -10 0 12 #fcfcfc #000000 #000000 0 1;
#X obj 233 136 s \$0o;
#X obj 276 136 oscformat /transform/rotation;
#X msg 247 110 0;
#X msg 444 111 360;
#X obj 268 298 s \$0o;
#X connect 0 0 1 0;
#X connect 1 0 2 0;
#X connect 4 0 3 0;
#X connect 5 0 4 0;
#X connect 6 0 13 0;
#X connect 7 0 8 0;
#X connect 8 0 21 0;
#X connect 9 0 8 0;
#X connect 10 0 15 0;
#X connect 11 0 10 0;
#X connect 12 0 10 0;
#X connect 14 0 3 0;
#X connect 15 0 6 0;
#X connect 16 0 18 0;
#X connect 18 0 17 0;
#X connect 19 0 16 0;
#X connect 20 0 16 0;
